<svg width="16" height="16" viewBox="0 0 16 16" fill="none" xmlns="http://www.w3.org/2000/svg">
<path d="M15.8048 0.195191C15.6798 0.0702103 15.5102 0 15.3334 0C15.1567 0 14.9871 0.0702103 14.8621 0.195191L8.0001 7.05719L1.1381 0.195191C1.01308 0.0702103 0.843545 0 0.666768 0C0.489992 0 0.320454 0.0702103 0.195435 0.195191V0.195191C0.0704544 0.320209 0.000244141 0.489748 0.000244141 0.666524C0.000244141 0.8433 0.0704544 1.01284 0.195435 1.13786L7.05744 7.99986L0.195435 14.8619C0.0704544 14.9869 0.000244141 15.1564 0.000244141 15.3332C0.000244141 15.51 0.0704544 15.6795 0.195435 15.8045V15.8045C0.320454 15.9295 0.489992 15.9997 0.666768 15.9997C0.843545 15.9997 1.01308 15.9295 1.1381 15.8045L8.0001 8.94252L14.8621 15.8045C14.9871 15.9295 15.1567 15.9997 15.3334 15.9997C15.5102 15.9997 15.6798 15.9295 15.8048 15.8045C15.9298 15.6795 16 15.51 16 15.3332C16 15.1564 15.9298 14.9869 15.8048 14.8619L8.94277 7.99986L15.8048 1.13786C15.9298 1.01284 16 0.8433 16 0.666524C16 0.489748 15.9298 0.320209 15.8048 0.195191V0.195191Z" fill="#475569"/>
</svg>
